<svg width="19" height="20" viewBox="0 0 19 20" fill="none" xmlns="http://www.w3.org/2000/svg">
<path d="M2.87499 10C2.87499 10.297 2.90199 10.594 2.93799 10.882L1.34999 12.124C0.997992 12.4 0.901992 12.893 1.12599 13.28L2.53799 15.723C2.76099 16.11 3.23499 16.273 3.64999 16.107L5.07199 15.536C5.35299 15.423 5.66599 15.468 5.91799 15.635C6.13799 15.781 6.36599 15.915 6.60199 16.035C6.87199 16.172 7.06799 16.417 7.11099 16.717L7.32799 18.23C7.39099 18.672 7.76999 19 8.21599 19H11.033C11.479 19 11.858 18.672 11.921 18.23L12.138 16.718C12.181 16.418 12.379 16.171 12.65 16.035C12.885 15.917 13.112 15.784 13.331 15.639C13.585 15.471 13.899 15.423 14.181 15.537L15.6 16.107C16.014 16.273 16.488 16.11 16.712 15.723L18.124 13.28C18.348 12.893 18.252 12.399 17.9 12.124L16.312 10.882C16.348 10.594 16.375 10.297 16.375 10C16.375 9.703 16.348 9.406 16.312 9.118L17.9 7.876C18.252 7.6 18.348 7.107 18.124 6.72L16.712 4.277C16.489 3.89 16.015 3.727 15.6 3.893L14.181 4.463C13.899 4.576 13.585 4.529 13.331 4.361C13.112 4.216 12.885 4.083 12.65 3.965C12.379 3.829 12.181 3.582 12.138 3.282L11.922 1.77C11.859 1.328 11.48 1 11.034 1H8.21699C7.77099 1 7.39199 1.328 7.32899 1.77L7.11099 3.284C7.06799 3.583 6.87099 3.829 6.60199 3.966C6.36599 4.086 6.13799 4.221 5.91799 4.366C5.66499 4.532 5.35199 4.577 5.07099 4.464L3.64999 3.893C3.23499 3.727 2.76099 3.89 2.53799 4.277L1.12599 6.72C0.901992 7.107 0.997992 7.601 1.34999 7.876L2.93799 9.118C2.90199 9.406 2.87499 9.703 2.87499 10V10Z" stroke="#5B6975" stroke-width="1.5" stroke-linecap="round" stroke-linejoin="round"/>
</svg>
